<mxfile host="Electron" agent="Mozilla/5.0 (Windows NT 10.0; Win64; x64) AppleWebKit/537.36 (KHTML, like Gecko) draw.io/24.7.17 Chrome/128.0.6613.36 Electron/32.0.1 Safari/537.36" version="24.7.17">
  <diagram id="WfCq4qOM4lw26aqA04-m" name="Página-1">
    <mxGraphModel dx="1434" dy="836" grid="1" gridSize="10" guides="1" tooltips="1" connect="1" arrows="1" fold="1" page="1" pageScale="1" pageWidth="827" pageHeight="1169" math="0" shadow="0">
      <root>
        <mxCell id="0" />
        <mxCell id="1" parent="0" />
        <mxCell id="8n3yAHJvoHqV9VtytGq8-1" value="Hijos" style="rounded=0;whiteSpace=wrap;html=1;fillColor=#1ba1e2;fontColor=#ffffff;strokeColor=#006EAF;" parent="1" vertex="1">
          <mxGeometry x="600" y="140" width="120" height="60" as="geometry" />
        </mxCell>
        <mxCell id="8n3yAHJvoHqV9VtytGq8-3" value="Personas&lt;span style=&quot;white-space: pre;&quot;&gt;&#x9;&lt;/span&gt;" style="rounded=0;whiteSpace=wrap;html=1;fillColor=#1ba1e2;fontColor=#ffffff;strokeColor=#006EAF;" parent="1" vertex="1">
          <mxGeometry x="158" y="140" width="120" height="60" as="geometry" />
        </mxCell>
        <mxCell id="8n3yAHJvoHqV9VtytGq8-4" value="Tienen" style="rhombus;whiteSpace=wrap;html=1;fillColor=#008a00;fontColor=#ffffff;strokeColor=#005700;" parent="1" vertex="1">
          <mxGeometry x="380" y="150" width="110" height="40" as="geometry" />
        </mxCell>
        <mxCell id="8n3yAHJvoHqV9VtytGq8-5" value="" style="endArrow=none;html=1;rounded=0;endFill=0;exitX=0;exitY=1;exitDx=0;exitDy=0;" parent="1" source="8n3yAHJvoHqV9VtytGq8-10" edge="1">
          <mxGeometry width="50" height="50" relative="1" as="geometry">
            <mxPoint x="288" y="169.5" as="sourcePoint" />
            <mxPoint x="378" y="169.5" as="targetPoint" />
          </mxGeometry>
        </mxCell>
        <mxCell id="8n3yAHJvoHqV9VtytGq8-6" value="" style="endArrow=none;html=1;rounded=0;endFill=0;exitX=1;exitY=0.5;exitDx=0;exitDy=0;entryX=1;entryY=1;entryDx=0;entryDy=0;" parent="1" source="8n3yAHJvoHqV9VtytGq8-4" target="8n3yAHJvoHqV9VtytGq8-11" edge="1">
          <mxGeometry width="50" height="50" relative="1" as="geometry">
            <mxPoint x="500" y="169.5" as="sourcePoint" />
            <mxPoint x="590" y="169.5" as="targetPoint" />
          </mxGeometry>
        </mxCell>
        <mxCell id="8n3yAHJvoHqV9VtytGq8-7" value="" style="endArrow=none;html=1;rounded=0;endFill=0;exitX=0.5;exitY=1;exitDx=0;exitDy=0;" parent="1" source="8n3yAHJvoHqV9VtytGq8-1" edge="1">
          <mxGeometry width="50" height="50" relative="1" as="geometry">
            <mxPoint x="659.5" y="210" as="sourcePoint" />
            <mxPoint x="659.5" y="290" as="targetPoint" />
          </mxGeometry>
        </mxCell>
        <mxCell id="8n3yAHJvoHqV9VtytGq8-8" value="" style="endArrow=none;html=1;rounded=0;endFill=0;" parent="1" edge="1">
          <mxGeometry width="50" height="50" relative="1" as="geometry">
            <mxPoint x="660" y="290" as="sourcePoint" />
            <mxPoint x="220" y="290" as="targetPoint" />
          </mxGeometry>
        </mxCell>
        <mxCell id="8n3yAHJvoHqV9VtytGq8-9" value="" style="endArrow=none;html=1;rounded=0;endFill=0;" parent="1" edge="1">
          <mxGeometry width="50" height="50" relative="1" as="geometry">
            <mxPoint x="220" y="290" as="sourcePoint" />
            <mxPoint x="220" y="200" as="targetPoint" />
          </mxGeometry>
        </mxCell>
        <mxCell id="8n3yAHJvoHqV9VtytGq8-10" value="(0,n)" style="text;html=1;align=center;verticalAlign=middle;whiteSpace=wrap;rounded=0;" parent="1" vertex="1">
          <mxGeometry x="278" y="140" width="60" height="30" as="geometry" />
        </mxCell>
        <mxCell id="8n3yAHJvoHqV9VtytGq8-11" value="(1,1)" style="text;html=1;align=center;verticalAlign=middle;whiteSpace=wrap;rounded=0;" parent="1" vertex="1">
          <mxGeometry x="540" y="140" width="60" height="30" as="geometry" />
        </mxCell>
        <mxCell id="8n3yAHJvoHqV9VtytGq8-12" value="(n,1)" style="text;html=1;align=center;verticalAlign=middle;whiteSpace=wrap;rounded=0;" parent="1" vertex="1">
          <mxGeometry x="405" y="120" width="60" height="30" as="geometry" />
        </mxCell>
        <mxCell id="8n3yAHJvoHqV9VtytGq8-21" value="" style="edgeStyle=orthogonalEdgeStyle;rounded=0;orthogonalLoop=1;jettySize=auto;html=1;endArrow=none;endFill=0;" parent="1" source="8n3yAHJvoHqV9VtytGq8-14" target="8n3yAHJvoHqV9VtytGq8-3" edge="1">
          <mxGeometry relative="1" as="geometry" />
        </mxCell>
        <mxCell id="8n3yAHJvoHqV9VtytGq8-14" value="&lt;u&gt;DNI&lt;/u&gt;" style="ellipse;whiteSpace=wrap;html=1;fillColor=#647687;fontColor=#ffffff;strokeColor=#314354;" parent="1" vertex="1">
          <mxGeometry x="158" y="30" width="90" height="50" as="geometry" />
        </mxCell>
        <mxCell id="8n3yAHJvoHqV9VtytGq8-20" style="edgeStyle=orthogonalEdgeStyle;rounded=0;orthogonalLoop=1;jettySize=auto;html=1;exitX=1;exitY=1;exitDx=0;exitDy=0;entryX=0;entryY=0;entryDx=0;entryDy=0;endArrow=none;endFill=0;" parent="1" source="8n3yAHJvoHqV9VtytGq8-15" target="8n3yAHJvoHqV9VtytGq8-3" edge="1">
          <mxGeometry relative="1" as="geometry" />
        </mxCell>
        <mxCell id="8n3yAHJvoHqV9VtytGq8-15" value="Nombre" style="ellipse;whiteSpace=wrap;html=1;fillColor=#647687;fontColor=#ffffff;strokeColor=#314354;" parent="1" vertex="1">
          <mxGeometry x="40" y="70" width="90" height="50" as="geometry" />
        </mxCell>
        <mxCell id="8n3yAHJvoHqV9VtytGq8-18" value="" style="edgeStyle=orthogonalEdgeStyle;rounded=0;orthogonalLoop=1;jettySize=auto;html=1;endArrow=none;endFill=0;" parent="1" source="8n3yAHJvoHqV9VtytGq8-16" target="8n3yAHJvoHqV9VtytGq8-3" edge="1">
          <mxGeometry relative="1" as="geometry" />
        </mxCell>
        <mxCell id="8n3yAHJvoHqV9VtytGq8-16" value="Direccion" style="ellipse;whiteSpace=wrap;html=1;fillColor=#647687;fontColor=#ffffff;strokeColor=#314354;" parent="1" vertex="1">
          <mxGeometry x="40" y="150" width="90" height="50" as="geometry" />
        </mxCell>
        <mxCell id="8n3yAHJvoHqV9VtytGq8-19" style="edgeStyle=orthogonalEdgeStyle;rounded=0;orthogonalLoop=1;jettySize=auto;html=1;exitX=1;exitY=0;exitDx=0;exitDy=0;entryX=0;entryY=1;entryDx=0;entryDy=0;endArrow=none;endFill=0;" parent="1" source="8n3yAHJvoHqV9VtytGq8-17" target="8n3yAHJvoHqV9VtytGq8-3" edge="1">
          <mxGeometry relative="1" as="geometry" />
        </mxCell>
        <mxCell id="8n3yAHJvoHqV9VtytGq8-17" value="NºTelefono" style="ellipse;whiteSpace=wrap;html=1;fillColor=#647687;fontColor=#ffffff;strokeColor=#314354;" parent="1" vertex="1">
          <mxGeometry x="40" y="230" width="90" height="50" as="geometry" />
        </mxCell>
      </root>
    </mxGraphModel>
  </diagram>
</mxfile>
